<svg width="25" height="28" viewBox="0 0 25 28" fill="none" xmlns="http://www.w3.org/2000/svg">
<path d="M25 27C25 27.5523 24.5523 28 24 28H16.2778C15.7255 28 15.2778 27.5523 15.2778 27V19.0526C15.2778 18.5003 14.8301 18.0526 14.2778 18.0526H10.7222C10.1699 18.0526 9.7222 18.5003 9.7222 19.0526V27C9.7222 27.5523 9.27448 28 8.7222 28H1C0.447716 28 0 27.5523 0 27V7.89769C0 7.54272 0.188173 7.21436 0.494433 7.0349L11.9962 0.295236C12.3075 0.112825 12.6929 0.112251 13.0047 0.293734L24.503 6.98543C24.8107 7.16451 25 7.49369 25 7.84972V27Z" fill="white"/>
</svg>
